<svg xmlns="http://www.w3.org/2000/svg" xmlns:xlink="http://www.w3.org/1999/xlink" viewBox="0,0,256,256" width="90px" height="90px" fill-rule="nonzero"><g fill="#2f00ff" fill-rule="nonzero" stroke="none" stroke-width="1" stroke-linecap="butt" stroke-linejoin="miter" stroke-miterlimit="10" stroke-dasharray="" stroke-dashoffset="0" font-family="none" font-weight="none" font-size="none" text-anchor="none" style="mix-blend-mode: normal"><g transform="scale(8.53333,8.53333)"><path d="M19.86133,2c0,0 1.78516,2.36436 1.78516,5.31836c0,7.091 -10.64453,5.52575 -10.64453,10.84375c0,1.182 0.98047,1.84766 0.98047,1.84766c0,0 0.33511,-2.87809 3.16211,-2.99609l0.14063,-1.01172c0.077,-0.547 0.58291,-0.93056 1.12891,-0.85156c0.547,0.077 0.92856,0.58291 0.85156,1.12891l-0.15234,1.08398c1.217,0.538 1.87305,1.62384 1.87305,2.83984c0,1.785 -1.18081,2.92017 -2.75781,3.45117l-0.60352,4.29883c5.843,-0.47 11.375,-4.60872 11.375,-11.76172c0,-3.625 -1,-5.19141 -1,-5.19141c0,0 -0.32055,3 -1.68555,3c-1.517,0 -1.28906,-3.787 -1.28906,-6c0,-4.136 -3.16406,-6 -3.16406,-6zM13.91211,3.77344c0,0 -2.54197,6.25 -4.91797,6.25c-2.142,0 -1.91992,-4.04492 -1.91992,-4.04492c0,0 -5.06055,1.7223 -5.06055,9.4043c0,9.202 6.64784,12.25894 11.58984,12.58594l0.55664,-3.9668c-0.065,0.002 -0.12836,0.00586 -0.19336,0.00586c-2.098,0 -5.98242,-1.86009 -5.98242,-5.99609c0,-7.091 12.00781,-5.53747 12.00781,-10.85547c0,-1.803 -1.98047,-2.13867 -1.98047,-2.13867c0,2.659 -3.0332,3.97656 -3.0332,3.97656c1.315,-3.405 -1.06641,-5.2207 -1.06641,-5.2207z"></path></g></g></svg>